# xmcd
#
# Track frame offsets: 
#        150
#        18921
#        42216
#        64073
#        85941
#        106076
#        126449
#        147731
#        169418
#        191045
#        209272
#        227920
#        249540
#        271551
#        292648
#
# Disc length: 4173 seconds
#
# Revision: 6
# Processed by: cddbd v1.5.2PL0 Copyright (c) Steve Scherf et al.
# Submitted via: ExactAudioCopy v1.3
#
DISCID=d5104b0f
DTITLE=Flower - THIS IS Flower THIS IS BEST
DYEAR=2016
DGENRE=JPop
TTITLE0=Still version2016
TTITLE1=SAKURAリグレット version2016
TTITLE2=forget-me-not 〜ワスレナグサ〜 version2016
TTITLE3=恋人がサンタクロース version2016
TTITLE4=太陽と向日葵 version2016
TTITLE5=白雪姫 version2016
TTITLE6=熱帯魚の涙 version2016
TTITLE7=秋風のアンサー version2016
TTITLE8=さよなら、アリス version2016
TTITLE9=TOMORROW 〜しあわせの法則〜 version2016
TTITLE10=Blue Sky Blue version2016
TTITLE11=瞳の奥の銀河（ミルキーウェイ）
TTITLE12=やさしさで溢れるように
TTITLE13=他の誰かより悲しい恋をしただけ
TTITLE14=人魚姫
EXTD=
EXTT0=
EXTT1=
EXTT2=
EXTT3=
EXTT4=
EXTT5=
EXTT6=
EXTT7=
EXTT8=
EXTT9=
EXTT10=
EXTT11=
EXTT12=
EXTT13=
EXTT14=
PLAYORDER=
